<?xml version="1.0" encoding="utf-8"?>
<!-- Generator: Adobe Illustrator 27.1.1, SVG Export Plug-In . SVG Version: 6.00 Build 0)  -->
<svg version="1.1" id="Lager_1" xmlns="http://www.w3.org/2000/svg" xmlns:xlink="http://www.w3.org/1999/xlink" x="0px" y="0px"
	 viewBox="0 0 204.29 405.42" style="enable-background:new 0 0 204.29 405.42;" xml:space="preserve">
<style type="text/css">
	.st0{fill:#F1C730;}
</style>
<g id="EgDodT_00000052075992042942371110000007531993697045344702_">
	<g>
		<path class="st0" d="M0,118.97c2.02-2.97,3.86-6.08,6.1-8.88c6.6-8.25,14.96-14.16,24.98-17.49c8.07-2.68,16.26-4.99,24.41-7.43
			c12.93-3.88,25.87-7.74,38.8-11.61c11.9-3.56,23.78-7.18,35.7-10.67c6.39-1.87,12.26-4.72,17.85-8.31
			c18.31-11.78,36.67-23.49,55.01-35.22c0.33-0.21,0.68-0.39,1.23-0.7c0,3.95,0,7.7,0,11.57c-1.56,0.92-3.17,1.87-4.78,2.82
			c-15.26,8.96-30.53,17.91-45.79,26.86c-4.34,2.54-8.95,4.4-13.82,5.65c-17.21,4.43-34.42,8.86-51.63,13.29
			c-14.46,3.73-28.93,7.44-43.39,11.2c-10.16,2.64-18.88,7.76-26,15.47C10.85,114,6.12,123.97,4.58,135.41
			c-1.7,12.63,0.91,24.36,7.36,35.32c11.27,19.15,22.46,38.34,33.69,57.51c5.35,9.14,10.73,18.26,16.04,27.42
			c2.52,4.35,4.22,9.04,5.47,13.9c6,23.42,12.01,46.83,18.04,70.25c2.26,8.78,4.44,17.59,6.9,26.32
			c2.27,8.06,6.48,15.09,12.25,21.17c8.15,8.59,18.06,14.03,29.69,16.18c12.63,2.34,24.7,0.53,35.9-5.81
			c10.74-6.07,21.32-12.44,31.98-18.67c0.65-0.38,1.31-0.73,2.17-1.21c0.07,0.57,0.16,0.97,0.16,1.37c0.01,2.96-0.02,5.92,0.02,8.87
			c0.01,1-0.36,1.6-1.2,2.14c-7.55,4.8-15.07,9.65-22.64,14.43c-0.73,0.46-1.69,0.77-2.54,0.77c-20.37,0.04-40.75,0.03-61.12,0.05
			c-1.01,0-1.84-0.27-2.65-0.86c-10.69-7.85-17.72-18.2-21.45-30.92c-4.9-16.72-9.97-33.39-14.96-50.08
			c-4.52-15.12-9.05-30.24-13.53-45.38c-1.8-6.06-4.45-11.7-7.86-17.02c-11.8-18.4-23.55-36.83-35.32-55.25
			c-6.03-9.43-12.07-18.84-18.09-28.27c-0.99-1.55-1.92-3.13-2.88-4.7C0,154.95,0,136.96,0,118.97z"/>
		<path class="st0" d="M0,193.57c1.85,2.61,3.72,5.2,5.54,7.82c12.12,17.42,24.23,34.83,36.33,52.27
			c4.67,6.73,9.34,13.46,13.89,20.27c2.31,3.47,3.98,7.29,5.33,11.24c4.56,13.31,9.09,26.62,13.64,39.94
			c6.56,19.21,13.15,38.41,19.67,57.64c2.05,6.04,4.42,11.92,8.05,17.2c1,1.45,2.1,2.82,3.14,4.23c0.23,0.31,0.44,0.63,0.78,1.12
			c-4.22,0-8.22,0-12.29,0c-2.07-2.58-3.96-5.35-5.12-8.45c-2.24-5.98-4.29-12.04-6.3-18.1c-4.73-14.3-9.39-28.63-14.07-42.95
			c-4.06-12.42-8.08-24.85-12.19-37.26c-1.77-5.35-3.45-10.74-5.63-15.92c-1.57-3.73-3.71-7.26-5.91-10.67
			c-8.87-13.77-17.87-27.47-26.81-41.2c-5.85-8.97-11.68-17.96-17.52-26.93c-0.15-0.23-0.35-0.43-0.53-0.65
			C0,199.96,0,196.76,0,193.57z"/>
		<path class="st0" d="M0,213.71c1.54,2.43,3.1,4.83,4.6,7.29c11.43,18.72,22.86,37.45,34.26,56.19c2.86,4.7,4.93,9.77,6.57,15.01
			c3.02,9.65,6.02,19.3,9.03,28.95c6.43,20.64,12.86,41.28,19.29,61.91c1.53,4.92,3.02,9.86,4.68,14.74
			c0.74,2.18,1.84,4.24,2.78,6.35c0.14,0.32,0.3,0.62,0.54,1.12c-3.94,0-7.69,0-11.6,0c-0.33-0.86-0.73-1.72-1-2.63
			c-5.36-18-10.69-36-16.04-54.01c-5.53-18.61-11.03-37.24-16.62-55.83c-1.78-5.92-4.57-11.4-7.66-16.75
			c-7.03-12.18-13.95-24.43-20.92-36.64c-2.62-4.58-5.26-9.14-7.9-13.7C0,221.71,0,217.71,0,213.71z"/>
		<path class="st0" d="M0,239.14c1.2,2.16,2.43,4.31,3.59,6.49c5.36,10.05,10.49,20.22,16.11,30.12c5.45,9.6,8.82,19.9,11.71,30.45
			c3.67,13.37,7.5,26.7,11.27,40.04c5.43,19.27,10.87,38.54,16.3,57.8c0.09,0.34,0.13,0.69,0.23,1.2c-3.55,0-6.98,0-10.58,0
			c-0.36-1.28-0.75-2.61-1.11-3.95c-7.43-27.79-14.85-55.59-22.29-83.38c-2-7.49-3.89-15.01-6.15-22.42
			c-1.33-4.34-3.06-8.59-5.02-12.68c-4.27-8.94-8.8-17.76-13.22-26.63c-0.25-0.5-0.56-0.96-0.84-1.44C0,249.53,0,244.34,0,239.14z"
			/>
		<path class="st0" d="M0,272c0.59,1.17,1.21,2.33,1.77,3.52c3.59,7.63,7.28,15.22,9.4,23.43c1.74,6.73,3.43,13.47,5.13,20.21
			c4.81,19.06,9.61,38.12,14.42,57.17c2.29,9.06,4.6,18.12,6.89,27.18c0.13,0.53,0.23,1.08,0.37,1.76c-3.56,0-7,0-10.61,0
			c-0.39-1.54-0.79-3.07-1.15-4.62c-2.63-11.08-5.26-22.15-7.89-33.23c-5.18-21.84-10.34-43.69-15.58-65.52
			c-0.73-3.06-1.82-6.03-2.74-9.05C0,285.91,0,278.96,0,272z"/>
		<path class="st0" d="M202.8,0c-1.94,0.92-3.86,1.9-5.83,2.77c-14.66,6.44-29.33,12.86-44,19.29c-9.11,3.99-18.26,7.88-27.32,11.99
			c-9.44,4.29-19.41,6.85-29.39,9.42c-26.11,6.71-52.21,13.45-78.31,20.18C11.97,65.2,5.99,66.79,0,68.36c0-2,0-4,0-6
			c0.74-0.16,1.49-0.29,2.22-0.47c14.55-3.53,29.1-7.07,43.65-10.61c16.45-4,32.89-8.04,49.34-12.02
			c9.71-2.35,19.34-4.87,28.62-8.69c19.21-7.9,38.49-15.6,57.74-23.4c5.88-2.38,11.76-4.79,17.64-7.18C200.4,0,201.6,0,202.8,0z"/>
		<path class="st0" d="M0,56.61c0-2,0-4,0-6c0.32-0.04,0.64-0.06,0.95-0.13c13.94-2.97,27.89-5.94,41.83-8.92
			c15.89-3.4,31.78-6.81,47.68-10.19c10.04-2.13,20.04-4.42,29.76-7.8c16.53-5.74,33.1-11.36,49.65-17.04
			c6.35-2.18,12.69-4.36,19.04-6.54c1.84,0,3.68,0,5.51,0c-0.38,0.21-0.75,0.46-1.15,0.61c-2.58,0.98-5.16,1.93-7.74,2.9
			c-14.78,5.51-29.57,11.01-44.35,16.53c-7.52,2.81-14.99,5.77-22.55,8.45c-7.42,2.63-15.05,4.55-22.74,6.28
			C84,37.44,72.14,40.2,60.27,42.91c-15.41,3.53-30.83,7.05-46.24,10.56C9.35,54.54,4.67,55.56,0,56.61z"/>
		<path class="st0" d="M0,99.06c4.8-3.66,10.2-6.07,15.9-7.92c10.68-3.46,21.33-6.99,31.99-10.5c16.58-5.45,33.17-10.9,49.75-16.35
			c8.38-2.76,16.79-5.47,25.13-8.35c4.31-1.49,8.36-3.61,12.2-6.09c18.44-11.87,36.88-23.75,55.32-35.62
			c4.06-2.62,8.12-5.24,12.19-7.86c0.49-0.32,1-0.61,1.51-0.91c0.09,0.09,0.18,0.18,0.26,0.27c-0.31,0.33-0.58,0.73-0.95,0.98
			c-6.52,4.55-13.04,9.09-19.57,13.63c-15.21,10.59-30.43,21.18-45.64,31.78c-4.55,3.17-9.4,5.77-14.64,7.57
			c-13.6,4.67-27.21,9.31-40.82,13.96c-16.1,5.5-32.21,11-48.3,16.52c-5.18,1.78-10.37,3.5-15.47,5.47
			c-6.75,2.61-12.64,6.63-17.93,11.54c-0.29,0.27-0.62,0.5-0.92,0.75C0,104.98,0,102.02,0,99.06z"/>
		<path class="st0" d="M0,73.88c2.97-0.78,5.95-1.53,8.92-2.33c14.06-3.82,28.13-7.66,42.19-11.49c16.76-4.57,33.51-9.18,50.28-13.7
			c7.95-2.14,15.86-4.39,23.39-7.79c4.62-2.08,9.15-4.37,13.74-6.54C153.3,25.02,168.1,18.01,182.89,11
			c6.6-3.13,13.2-6.27,19.81-9.4c0.42-0.2,0.85-0.36,1.28-0.54c0.1,0.09,0.21,0.17,0.31,0.26c-0.21,0.39-0.33,0.88-0.64,1.14
			c-0.48,0.4-1.09,0.66-1.66,0.95c-9.64,4.92-19.29,9.83-28.93,14.76c-10.21,5.22-20.41,10.44-30.61,15.67
			c-4.87,2.5-9.71,5.04-14.59,7.52c-6.51,3.3-13.4,5.59-20.4,7.59c-20.93,5.98-41.84,11.99-62.76,18
			c-14.43,4.14-28.86,8.28-43.3,12.41c-0.46,0.13-0.94,0.19-1.4,0.28C0,77.71,0,75.8,0,73.88z"/>
		<path class="st0" d="M0,85.39c3.85-1.19,7.7-2.4,11.56-3.56c12.66-3.82,25.32-7.61,37.98-11.42c16.18-4.87,32.37-9.69,48.52-14.63
			c8.09-2.47,16.15-5.07,24.16-7.81c5.62-1.92,10.59-5.23,15.77-8.07c8.06-4.4,16.08-8.88,24.12-13.33
			c9.61-5.32,19.22-10.64,28.83-15.95c4.02-2.22,8.04-4.44,12.07-6.65c0.31-0.17,0.64-0.29,1.04-0.47c0.3,0.93-0.33,1.21-0.84,1.52
			c-2.94,1.78-5.89,3.54-8.84,5.3c-8.16,4.87-16.33,9.74-24.5,14.61c-13.01,7.75-25.99,15.54-39.03,23.23
			c-5.08,2.99-10.62,4.98-16.24,6.74c-8.77,2.75-17.52,5.52-26.29,8.27C66,70.19,43.67,77.21,21.35,84.25
			c-6.02,1.9-12.03,3.82-18.03,5.77c-1.14,0.37-2.22,0.9-3.32,1.36C0,89.39,0,87.39,0,85.39z"/>
		<path class="st0" d="M173.32,0c2.8,0,5.59,0,8.39,0c-0.43,0.2-0.85,0.44-1.29,0.58c-11.96,3.75-23.93,7.49-35.89,11.25
			c-9.6,3.02-19.15,6.19-28.79,9.05c-5.93,1.76-11.95,3.26-18,4.51c-14.89,3.09-29.83,5.98-44.74,8.94
			C35.32,37.85,17.66,41.35,0,44.85c0-2,0-4,0-6c0.43-0.1,0.85-0.21,1.28-0.29c11.03-2.02,22.06-4.03,33.09-6.06
			c18.13-3.33,36.28-6.59,54.39-10.05c8.54-1.63,17.09-3.34,25.49-5.59c14.92-3.99,29.73-8.42,44.58-12.67
			C163.66,2.81,168.49,1.4,173.32,0z"/>
		<path class="st0" d="M162.53,0c-0.48,0.18-0.95,0.42-1.45,0.55c-14.81,3.82-29.64,7.54-44.42,11.47
			c-12.22,3.25-24.65,5.34-37.08,7.44c-12.55,2.12-25.11,4.23-37.66,6.35c-11.73,1.97-23.46,3.94-35.19,5.92
			C4.48,32.09,2.24,32.48,0,32.86c0-2.08,0-4.16,0-6.24c1.54-0.2,3.09-0.36,4.63-0.59c11.28-1.73,22.56-3.47,33.84-5.21
			c9.23-1.42,18.45-2.85,27.68-4.26c7.49-1.15,15.01-2.17,22.48-3.45c8.22-1.41,16.42-2.94,24.58-4.66
			c7.77-1.63,15.48-3.57,23.21-5.38c4.31-1.01,8.62-2.05,12.93-3.07C153.74,0,158.13,0,162.53,0z"/>
		<path class="st0" d="M132.32,0c-1.85,0.45-3.69,0.97-5.56,1.34c-10.33,2.03-20.65,4.15-31.02,5.97
			c-7.5,1.31-15.07,2.22-22.61,3.28c-8.89,1.25-17.78,2.47-26.66,3.7c-7.9,1.09-15.8,2.17-23.7,3.27
			c-6.6,0.91-13.19,1.84-19.79,2.75C1.98,20.44,0.99,20.52,0,20.63c0-2.08,0-4.16,0-6.24c2.14-0.24,4.28-0.47,6.41-0.73
			c10.05-1.22,20.11-2.43,30.15-3.67c11.36-1.4,22.71-2.79,34.06-4.25c10.99-1.41,21.98-2.88,32.96-4.38
			c2.56-0.35,5.09-0.91,7.64-1.37C118.26,0,125.29,0,132.32,0z"/>
		<path class="st0" d="M0,330.76c0.56,2.24,1.16,4.47,1.67,6.72c3.36,15.04,6.71,30.09,10.05,45.13c1.6,7.17,3.19,14.34,4.78,21.52
			c0.08,0.34,0.09,0.69,0.15,1.16c-3.55,0-6.99,0-10.56,0c-0.43-2-0.87-3.93-1.27-5.88c-1.48-7.12-2.94-14.23-4.41-21.35
			c-0.09-0.43-0.26-0.83-0.4-1.25C0,361.47,0,346.12,0,330.76z"/>
		<path class="st0" d="M75.75,0c-1.65,0.25-3.3,0.54-4.95,0.73c-6.5,0.73-13.01,1.43-19.51,2.12c-6.35,0.68-12.7,1.32-19.04,2.01
			C25.26,5.61,18.28,6.4,11.3,7.16C7.93,7.53,4.55,7.85,1.18,8.2C0.79,8.25,0.39,8.33,0,8.4c0-2.16,0-4.32,0-6.48
			C0.83,1.88,1.67,1.88,2.5,1.8c4.03-0.36,8.07-0.74,12.1-1.13c2.09-0.2,4.17-0.45,6.26-0.68C39.15,0,57.45,0,75.75,0z"/>
		<path class="st0" d="M204.16,41.11c0,3.41,0,6.64,0,9.94c-0.41,0.24-0.8,0.52-1.22,0.72c-11.92,5.81-23.84,11.63-35.78,17.4
			c-4.64,2.24-9.63,3.37-14.69,4.24c-10.78,1.86-21.55,3.79-32.32,5.69c-15.73,2.77-31.46,5.52-47.18,8.31
			c-4.83,0.86-9.69,1.56-14.35,3.26c-11.47,4.17-20.22,11.57-26.35,22.08c-3.59,6.16-5.7,12.83-6.38,19.93
			c-0.9,9.3,0.69,18.15,4.77,26.54c5.96,12.26,11.92,24.51,17.88,36.76c4.26,8.77,8.53,17.54,12.79,26.31
			c2.85,5.86,5.66,11.73,8.55,17.57c3,6.07,4.27,12.6,5.39,19.19c1.84,10.79,3.79,21.56,5.68,32.34
			c2.77,15.74,5.55,31.47,8.28,47.21c1.01,5.86,2.35,11.61,5.14,16.9c7.92,15.01,20.31,23.97,37.01,26.74
			c10.31,1.71,20.18-0.05,29.57-4.65c12.59-6.17,25.21-12.29,37.81-18.43c1.4-0.68,2.81-1.35,4.22-2.02
			c0.31-0.15,0.64-0.25,1.13-0.43c0.05,0.53,0.12,0.91,0.12,1.28c0.01,2.52-0.02,5.04,0.02,7.56c0.01,0.91-0.32,1.46-1.14,1.89
			c-11.74,6.25-23.5,12.48-35.18,18.84c-5.77,3.14-11.73,5.64-18.24,6.7c-10.29,1.67-20.23,0.46-29.75-3.78
			c-10.31-4.6-18.34-11.81-24.04-21.58c-2.97-5.09-4.83-10.59-6.06-16.34c-2.89-13.56-5.85-27.1-8.79-40.65
			c-3.14-14.53-6.28-29.05-9.42-43.58c-1.17-5.43-2.09-10.95-4.52-16c-2.13-4.43-4.47-8.76-6.77-13.1
			c-3.22-6.07-6.5-12.11-9.75-18.17c-5.93-11.06-11.85-22.12-17.76-33.19c-4.11-7.68-8.22-15.36-12.28-23.07
			c-4.49-8.53-6.35-17.66-5.69-27.23c0.8-11.43,4.93-21.59,12.35-30.34c8.27-9.76,18.92-15.26,31.37-17.77
			c13.58-2.74,27.09-5.83,40.64-8.76c14.52-3.14,29.03-6.32,43.56-9.41c6.31-1.34,12.53-2.88,18.26-5.98
			c10.68-5.77,21.4-11.49,32.1-17.23c3.38-1.81,6.76-3.62,10.15-5.42C203.51,41.29,203.74,41.24,204.16,41.11z"/>
		<path class="st0" d="M204.15,60.78c0,3.06,0,5.96,0,8.97c-1.32,0.53-2.61,1.06-3.9,1.57c-6.58,2.59-13.15,5.2-19.74,7.75
			c-4.05,1.57-8.26,2.41-12.59,2.79c-4.45,0.39-8.89,0.88-13.34,1.32c-4.49,0.44-8.97,0.86-13.46,1.3
			c-4.53,0.44-9.05,0.89-13.58,1.33c-4.49,0.44-8.97,0.86-13.46,1.3c-4.57,0.45-9.13,0.9-13.7,1.35c-4.33,0.43-8.66,0.83-12.98,1.28
			c-9.03,0.95-17.08,4.29-24.03,10.13c-8.57,7.19-13.8,16.35-15.72,27.37c-1.43,8.19-0.51,16.17,2.52,23.89
			c7.97,20.27,15.97,40.52,23.95,60.78c2.14,5.43,4.28,10.85,6.37,16.3c1.57,4.09,2.33,8.37,2.73,12.73
			c0.41,4.53,0.89,9.06,1.33,13.58c0.43,4.45,0.86,8.9,1.29,13.35c0.45,4.61,0.91,9.21,1.36,13.82c0.43,4.45,0.85,8.9,1.28,13.35
			c0.44,4.57,0.9,9.14,1.35,13.7c0.42,4.25,0.8,8.5,1.27,12.75c0.99,8.81,4.28,16.67,9.98,23.48c6.89,8.24,15.59,13.48,26.12,15.61
			c8.77,1.77,17.31,0.84,25.62-2.44c16.64-6.57,33.29-13.13,49.94-19.7c0.39-0.15,0.81-0.25,1.36-0.43c0,3.06,0,5.95,0,9.02
			c-1.73,0.78-3.5,1.58-5.28,2.37c-13.12,5.78-26.25,11.54-39.37,17.33c-4.87,2.15-9.8,4.1-15.11,4.9
			c-11.25,1.69-21.83-0.31-31.55-6.16c-12.56-7.56-20.17-18.68-22.61-33.15c-1.31-7.79-2.18-15.66-3.25-23.49
			c-0.91-6.65-1.83-13.29-2.74-19.94c-1.09-7.99-2.15-15.99-3.26-23.97c-1.01-7.28-1.97-14.56-3.12-21.82
			c-0.85-5.34-3.25-10.18-5.4-15.08c-4.83-10.97-9.65-21.95-14.47-32.92c-4.82-10.97-9.68-21.93-14.45-32.93
			c-1.93-4.47-3.99-8.93-5.39-13.57c-3.21-10.64-2.45-21.22,1.99-31.38c6.31-14.43,17.17-23.73,32.47-27.56
			c4.28-1.07,8.73-1.48,13.11-2.11c5.57-0.8,11.15-1.53,16.72-2.29c8.03-1.09,16.05-2.18,24.08-3.28c6.6-0.9,13.2-1.82,19.81-2.73
			c5.38-0.74,10.75-1.5,16.13-2.22c5.16-0.69,10-2.39,14.73-4.49c8.68-3.87,17.4-7.67,26.1-11.49
			C203.48,60.95,203.71,60.91,204.15,60.78z"/>
		<path class="st0" d="M204.14,78.33c0,2.77,0,5.38,0,7.97c-0.3,0.15-0.49,0.3-0.72,0.36c-5.41,1.55-10.81,3.15-16.25,4.59
			c-1.68,0.44-3.47,0.55-5.22,0.6c-5.39,0.15-10.78,0.2-16.17,0.29c-9.18,0.16-18.36,0.33-27.54,0.5
			c-3.51,0.07-7.02,0.15-10.54,0.23c-7.18,0.16-14.38,0.12-21.55,0.53c-9.44,0.54-17.76,4.04-24.77,10.47
			c-7.09,6.5-11.41,14.51-12.88,24.02c-0.96,6.26-0.39,12.41,1.48,18.47c6.76,21.91,13.52,43.83,20.19,65.78
			c1.12,3.69,1.9,7.5,2.71,11.28c0.31,1.43,0.32,2.94,0.35,4.41c0.12,6.39,0.19,12.78,0.3,19.18c0.15,8.91,0.32,17.81,0.49,26.72
			c0.07,3.75,0.14,7.51,0.23,11.26c0.15,6.07,0.1,12.15,0.53,18.2c0.61,8.53,3.76,16.14,9.32,22.68
			c6.6,7.77,14.97,12.49,25.03,14.08c6.25,0.98,12.41,0.4,18.46-1.47c18.39-5.67,36.8-11.32,55.2-16.97
			c0.37-0.11,0.75-0.19,1.3-0.33c0,2.74,0,5.34,0,8.07c-0.42,0.19-0.87,0.44-1.34,0.61c-15.42,5.4-30.83,10.8-46.26,16.17
			c-3.77,1.31-7.52,2.75-11.39,3.7c-11.29,2.76-22.02,1.02-31.92-4.98c-10.84-6.58-17.58-16.19-20.05-28.68
			c-0.45-2.26-0.67-4.58-0.82-6.89c-0.32-4.9-0.5-9.81-0.79-14.71c-0.43-7.33-0.93-14.66-1.37-21.99c-0.29-4.86-0.5-9.73-0.79-14.59
			c-0.27-4.7-0.6-9.4-0.89-14.1c-0.19-3.11-0.39-6.22-0.52-9.33c-0.17-4.01-0.69-7.97-2.01-11.77
			c-5.1-14.68-10.24-29.35-15.36-44.03c-3.19-9.13-6.35-18.27-9.57-27.39c-1.29-3.66-2.5-7.33-3.07-11.19
			c-1.17-7.96-0.16-15.65,3.07-22.98c5.19-11.78,13.91-19.82,26.12-23.96c3.68-1.25,7.5-1.86,11.39-2.06
			c6.05-0.31,12.1-0.76,18.16-1.12c3.47-0.21,6.93-0.34,10.4-0.54c4.66-0.28,9.31-0.6,13.97-0.88c3.31-0.2,6.61-0.35,9.92-0.55
			c4.9-0.29,9.79-0.6,14.69-0.89c2.99-0.18,5.97-0.39,8.96-0.51c3.94-0.16,7.78-0.82,11.51-2.09c5.52-1.89,11.01-3.83,16.52-5.75
			C203.11,78.59,203.56,78.49,204.14,78.33z"/>
		<path class="st0" d="M204.09,94.19c0,2.56,0,4.92,0,7.55c-2.2,0.4-4.41,0.89-6.65,1.18c-4.95,0.63-9.88-0.16-14.81-0.4
			c-3.11-0.15-6.21-0.35-9.32-0.53c-5.26-0.31-10.51-0.62-15.77-0.92c-3.15-0.18-6.29-0.34-9.44-0.52
			c-5.14-0.3-10.27-0.66-15.41-0.9c-5.33-0.25-10.7-0.9-15.98,0.45c-14.31,3.64-23.46,12.6-27.29,26.87
			c-1.53,5.7-1.23,11.46,0.06,17.21c4.39,19.49,8.74,38.98,13.14,58.47c0.88,3.9,1.78,7.79,1.83,11.81
			c0.02,1.51-0.09,3.03-0.18,4.54c-0.37,6.1-0.77,12.19-1.13,18.29c-0.2,3.39-0.33,6.78-0.53,10.17c-0.29,4.9-0.62,9.8-0.91,14.7
			c-0.19,3.27-0.34,6.54-0.52,9.81c-0.21,3.67-0.55,7.33-0.64,11c-0.13,5.25,0.72,10.37,2.9,15.18
			c5.42,11.94,14.63,19.13,27.52,21.46c4.84,0.88,9.7,0.45,14.5-0.63c18.85-4.26,37.71-8.48,56.57-12.71
			c0.61-0.14,1.23-0.26,2.15-0.45c0.09,2.55,0.06,4.94,0.02,7.42c-0.48,0.18-0.87,0.35-1.29,0.46
			c-18.53,4.92-37.06,9.81-55.58,14.78c-3.84,1.03-7.72,1.8-11.68,1.8c-5.41,0.01-10.67-1.02-15.58-3.34
			c-12.02-5.69-19.57-15-22.17-28.13c-0.4-2.02-0.6-4.12-0.6-6.19c0.01-7.19,0.15-14.38,0.26-21.57c0.06-4.11,0.16-8.23,0.23-12.34
			c0.16-8.51,0.32-17.01,0.48-25.52c0.06-3.19,0.07-6.39,0.23-9.58c0.25-5.29-0.63-10.41-2.01-15.5
			c-3.02-11.1-5.93-22.24-8.88-33.36c-2.72-10.23-5.61-20.42-8.1-30.71c-3.6-14.87,0.35-27.7,11.45-38.16
			c6.21-5.85,13.76-9.18,22.32-9.66c5.13-0.29,10.29-0.07,15.43-0.02c5.83,0.06,11.66,0.17,17.49,0.27
			c4.35,0.07,8.7,0.16,13.05,0.24c8.1,0.16,16.22,0.12,24.31,0.53c6.17,0.31,12.08-0.63,17.93-2.38
			C202.3,94.59,203.11,94.43,204.09,94.19z"/>
		<path class="st0" d="M204.14,291.73c0,2.43,0,4.57,0,6.84c-1.75,0.34-3.42,0.68-5.1,0.99c-11.19,2.06-22.38,4.13-33.57,6.18
			c-7.38,1.36-14.75,2.84-22.16,4.02c-9.78,1.56-18.66-0.81-26.4-7.01c-6.73-5.38-10.82-12.39-12.28-20.91
			c-0.64-3.74-0.44-7.48-0.06-11.23c0.47-4.61,0.9-9.22,1.35-13.82c0.45-4.61,0.9-9.22,1.35-13.83c0.44-4.53,0.86-9.06,1.3-13.59
			c0.41-4.29,0.68-8.6,1.26-12.87c0.82-6.01,0.38-11.9-0.75-17.84c-3.23-16.95-6.28-33.94-9.4-50.91
			c-0.72-3.93-1.57-7.83-1.45-11.87c0.23-7.75,2.78-14.63,7.69-20.6c5.54-6.73,12.68-10.71,21.29-12.06c3.3-0.52,6.6-0.35,9.91-0.01
			c4.56,0.47,9.13,0.9,13.7,1.34c5.44,0.53,10.88,1.07,16.32,1.59c4.45,0.43,8.9,0.85,13.34,1.28c4.69,0.45,9.36,0.98,14.06,1.34
			c2.5,0.19,5.01,0.11,7.52,0.14c0.63,0.01,1.27,0,2.04,0c0,2.1,0,4.17,0,6.55c-1.53-0.13-2.98-0.2-4.42-0.39
			c-7.99-1.07-15.98-2.17-23.96-3.26c-6.8-0.93-13.59-1.93-20.41-2.76c-5.78-0.7-11.49-2.04-17.36-1.81
			c-7.17,0.28-13.48,2.81-18.92,7.46c-5.94,5.08-9.49,11.53-10.76,19.25c-0.59,3.59-0.33,7.15,0.2,10.73
			c1.44,9.8,2.83,19.6,4.24,29.41c1.22,8.5,2.41,17,3.69,25.49c0.62,4.1,0.12,8.12-0.43,12.16c-1.03,7.52-2.04,15.04-3.06,22.55
			c-1.07,7.83-2.17,15.66-3.21,23.5c-0.49,3.68-1.14,7.37-1.24,11.06c-0.13,5.1,1.07,10,3.47,14.54
			c3.84,7.26,9.61,12.38,17.33,15.23c5.45,2.01,11.03,2.23,16.75,1.34c9.19-1.43,18.4-2.69,27.61-4.01
			c8.57-1.24,17.14-2.49,25.72-3.71C200.88,292.02,202.42,291.91,204.14,291.73z"/>
		<path class="st0" d="M204.11,279.61c0,1.97,0,3.82,0,5.68c-0.35,0.07-0.58,0.16-0.81,0.15c-7.54-0.17-14.94,1.19-22.41,1.89
			c-7.31,0.69-14.61,1.47-21.91,2.23c-5,0.52-9.98,1.26-15,1.56c-7.43,0.46-14.14-1.71-19.95-6.41
			c-6.38-5.15-9.98-11.87-10.86-19.99c-0.35-3.23,0.02-6.45,0.6-9.66c2.21-12.31,4.34-24.62,6.49-36.94
			c0.79-4.49,1.59-8.97,2.35-13.46c0.62-3.62,0.38-7.24-0.02-10.87c-0.55-5.04-1.06-10.08-1.6-15.12
			c-0.52-4.96-1.06-9.92-1.58-14.88c-0.52-4.96-1.03-9.93-1.54-14.89c-0.18-1.75-0.33-3.5-0.51-5.24
			c-1.58-15.17,9.45-29.43,25.06-31.67c4.02-0.58,7.95-0.04,11.9,0.67c12.3,2.19,24.61,4.33,36.92,6.49
			c3.77,0.66,7.55,1.32,11.32,1.98c0.47,0.08,0.93,0.2,1.51,0.33c0,1.84,0,3.64,0,5.67c-0.66-0.09-1.23-0.13-1.78-0.25
			c-14.56-3.14-29.1-6.35-43.68-9.4c-15.09-3.16-29.88,7.29-31.93,22.59c-0.4,3.01-0.13,6.13-0.02,9.19
			c0.11,3.11,0.41,6.21,0.62,9.32c0.3,4.38,0.6,8.76,0.89,13.14c0.27,4.18,0.52,8.37,0.79,12.55c0.2,3.07,0.39,6.13,0.65,9.2
			c0.31,3.63-0.28,7.16-1.04,10.69c-3.36,15.5-6.84,30.98-9.94,46.53c-1.66,8.34,0.82,15.85,6.39,22.23
			c4.16,4.77,9.46,7.62,15.71,8.73c3.27,0.58,6.53,0.25,9.79,0.06c3.27-0.19,6.53-0.43,9.79-0.66c4.22-0.29,8.44-0.59,12.65-0.87
			c2.99-0.2,5.97-0.37,8.96-0.56c4.3-0.29,8.6-0.59,12.89-0.88C197.94,278.55,200.99,278.7,204.11,279.61z"/>
		<path class="st0" d="M204.13,133.04c0,1.88,0,3.65,0,5.6c-0.57-0.09-1.04-0.11-1.47-0.24c-9.95-2.96-19.9-5.93-29.85-8.9
			c-7.54-2.25-14.49-1.06-20.68,3.8c-5.46,4.3-8.36,10.03-8.48,17c-0.18,10.27-0.21,20.54-0.32,30.81
			c-0.04,3.59,0.03,7.2-0.25,10.78c-0.18,2.36-0.73,4.74-1.4,7.02c-3.68,12.58-7.52,25.11-11.16,37.7
			c-3.71,12.8,5.32,26.31,18.54,27.94c1.11,0.14,2.23,0.21,3.34,0.22c9.46,0.11,18.93,0.18,28.39,0.29
			c4.03,0.04,8.08-0.07,12.09,0.27c2.83,0.24,5.62,1.1,8.41,1.73c0.96,0.22,1.88,0.59,2.83,0.89c0,1.96,0,3.77,0,5.74
			c-0.68-0.13-1.22-0.19-1.74-0.33c-3.02-0.83-6.07-1.38-9.22-1.3c-6.03,0.16-12.05,0.32-18.08,0.49
			c-5.71,0.16-11.41,0.32-17.12,0.47c-3.35,0.09-6.7,0.23-10.06,0.23c-12.16-0.01-22.74-9.7-24.08-21.8
			c-0.49-4.38,0.48-8.49,1.54-12.63c3.09-12.04,6.16-24.08,9.28-36.11c0.93-3.61,1.83-7.19,1.7-10.97c-0.2-6.15-0.33-12.3-0.5-18.45
			c-0.15-5.63-0.31-11.26-0.47-16.89c-0.08-3.03-0.16-6.07-0.24-9.1c-0.31-11.41,7.95-21.75,19.27-24.3
			c4.75-1.07,9.33-0.44,13.95,0.77c11.36,2.97,22.74,5.87,34.11,8.79C202.98,132.68,203.47,132.84,204.13,133.04z"/>
		<path class="st0" d="M204.1,144.61c0,1.95,0,3.79,0,5.86c-1.56-0.58-2.94-1.08-4.3-1.61c-5.37-2.06-10.73-4.13-16.1-6.2
			c-11.35-4.38-23.53,3.51-24.29,15.66c-0.31,4.98-0.91,9.93-1.35,14.9c-0.44,4.89-0.91,9.78-1.24,14.67
			c-0.23,3.4-1.22,6.57-2.44,9.71c-3.47,8.9-6.9,17.81-10.3,26.73c-2.69,7.05-1.47,13.46,3.52,19.05c3.02,3.38,6.98,5.12,11.49,5.54
			c5.08,0.47,10.17,0.94,15.25,1.39c4.97,0.44,9.93,0.89,14.9,1.26c3.15,0.23,6.13,1.03,9.03,2.22c1.91,0.79,3.85,1.52,5.82,2.29
			c0,1.97,0,3.84,0,5.98c-1.56-0.52-2.94-0.87-4.24-1.43c-4.05-1.74-8.31-2.11-12.64-2.29c-5.9-0.24-11.79-0.61-17.69-0.91
			c-3.67-0.19-7.33-0.37-11-0.51c-3.56-0.13-7.12-0.28-10.42-1.83c-6.8-3.19-10.83-8.48-11.98-15.94c-0.51-3.29,0.03-6.44,1.08-9.55
			c3.76-11.05,7.48-22.1,11.31-33.12c1.06-3.04,1.33-6.16,1.49-9.3c0.38-7.26,0.67-14.52,1.02-21.77c0.21-4.31,0.23-8.64,0.77-12.91
			c0.96-7.66,5.13-13.14,12.22-16.24c4.62-2.02,9.4-2.11,14.16-0.53c8.3,2.76,16.57,5.62,24.85,8.44
			C203.35,144.29,203.67,144.44,204.1,144.61z"/>
		<path class="st0" d="M204.16,156.54c0,1.92,0,3.82,0,5.93c-0.45-0.17-0.81-0.27-1.14-0.42c-3.25-1.54-6.52-3.04-9.73-4.64
			c-8.76-4.37-18.42,0.91-19.73,10.54c-1,7.44-2.38,14.82-3.69,22.22c-0.27,1.55-0.8,3.11-1.47,4.54c-3.28,7.02-6.64,14.01-9.97,21
			c-3.85,8.07,0.96,17.38,9.76,18.88c7.87,1.34,15.75,2.62,23.6,4.04c1.66,0.3,3.27,1.01,4.83,1.69c2.52,1.11,4.97,2.35,7.51,3.56
			c0,2.01,0,3.94,0,6.06c-0.62-0.19-1.1-0.29-1.56-0.48c-1.91-0.81-3.85-1.57-5.71-2.48c-3.04-1.5-6.33-1.87-9.62-2.28
			c-6.61-0.83-13.22-1.68-19.82-2.53c-1.46-0.19-2.92-0.4-4.39-0.58c-6.91-0.84-12.71-6.98-13.28-13.9
			c-0.23-2.83,0.22-5.48,1.33-8.05c3.55-8.26,7.07-16.53,10.67-24.76c1.23-2.81,1.54-5.77,1.93-8.73
			c0.79-6.02,1.54-12.04,2.33-18.05c0.33-2.53,0.52-5.1,1.08-7.58c2.1-9.38,12.1-14.59,21-10.96c5.1,2.08,10.14,4.33,15.2,6.51
			C203.57,156.17,203.83,156.36,204.16,156.54z"/>
		<path class="st0" d="M204.1,230.98c0,2.17,0,4.25,0,6.56c-1.15-0.58-2.15-0.98-3.04-1.55c-4.61-2.93-9.73-4.31-15.04-5.24
			c-4.21-0.73-8.38-1.66-12.55-2.61c-4.81-1.1-7.7-4.19-8.68-9.01c-0.5-2.48,0.01-4.85,1.17-7.08c2.96-5.67,5.96-11.31,8.85-17.02
			c0.71-1.4,1.22-2.96,1.56-4.5c1.35-6.17,2.57-12.36,3.89-18.53c1.48-6.92,9.12-10.64,15.57-7.55c2.63,1.26,5.17,2.7,7.74,4.07
			c0.17,0.09,0.32,0.23,0.56,0.41c0,2.01,0,4.06,0,6.38c-1.25-0.7-2.3-1.32-3.38-1.87c-1.28-0.65-2.53-1.45-3.89-1.81
			c-4.7-1.25-9.3,1.61-10.55,6.43c-0.91,3.52-1.91,7.03-2.61,10.59c-0.84,4.23-2.54,8.03-4.8,11.67c-1.73,2.78-3.31,5.65-4.92,8.51
			c-3.2,5.66-0.63,11.68,5.67,13.29c3.68,0.94,7.34,1.96,11.05,2.74c3.62,0.75,6.92,2.15,10,4.14
			C201.82,229.71,202.98,230.32,204.1,230.98z"/>
		<path class="st0" d="M204.13,182.05c0,14.03,0,27.97,0,42.11c-0.47-0.25-0.79-0.38-1.07-0.58c-3.78-2.82-8.05-4.5-12.6-5.57
			c-1.71-0.4-3.39-0.94-5.05-1.48c-4.37-1.42-6.06-5.88-3.68-9.82c1.92-3.18,3.95-6.29,5.89-9.46c0.49-0.81,0.87-1.71,1.15-2.62
			c0.99-3.29,2.04-6.56,2.84-9.9c1.12-4.64,6.29-6.99,10.43-4.06C202.72,181.17,203.43,181.6,204.13,182.05z"/>
		<path class="st0" d="M199.63,405.07c1.43-0.99,2.86-1.99,4.41-3.07C203.85,402.98,201.24,404.84,199.63,405.07z"/>
		<path class="st0" d="M204.19,403.43c-0.28,1.54-1.33,2.11-2.97,1.74C202.25,404.57,203.1,404.07,204.19,403.43z"/>
	</g>
</g>
</svg>
