<?xml version="1.0" encoding="utf-8"?>
<!-- Generator: Adobe Illustrator 27.1.1, SVG Export Plug-In . SVG Version: 6.00 Build 0)  -->
<svg version="1.1" id="Lager_1" xmlns="http://www.w3.org/2000/svg" xmlns:xlink="http://www.w3.org/1999/xlink" x="0px" y="0px"
	 viewBox="0 0 164.75 127.85" style="enable-background:new 0 0 164.75 127.85;" xml:space="preserve">
<style type="text/css">
	.logo{fill:#f1c730;}
</style>
<path class="logo" d="M42.22,22.36c-0.65,0-0.94-0.29-0.94-0.94V4.58c0-0.65,0.29-0.94,0.94-0.94h11.6c0.65,0,0.94,0.29,0.94,0.94
	v3.09c0,0.65-0.29,0.94-0.94,0.94h-6.63v2.7h4.52c0.65,0,0.94,0.29,0.94,0.94v3.12c0,0.65-0.29,0.94-0.94,0.94h-4.52v5.12
	c0,0.65-0.29,0.94-0.94,0.94H42.22z M67.59,22.75c-6.5,0-8.09-2.13-8.09-5.3V8.58c0-3.17,1.59-5.33,8.09-5.33
	c6.5,0,8.06,2.16,8.06,5.33v8.87C75.65,20.62,74.09,22.75,67.59,22.75z M67.59,17.73c1.9,0,2.18-0.52,2.18-1.22V9.52
	c0-0.68-0.29-1.2-2.18-1.2c-1.87,0-2.18,0.52-2.18,1.2v6.99C65.41,17.21,65.72,17.73,67.59,17.73z M89.43,22.75
	c-6.45,0-8.03-2.13-8.03-5.3V4.58c0-0.65,0.29-0.94,0.94-0.94h4.08c0.65,0,0.94,0.29,0.94,0.94v11.86c0,0.7,0.31,1.22,2.13,1.22
	c1.85,0,2.16-0.52,2.16-1.22V4.58c0-0.65,0.26-0.94,0.94-0.94h3.95c0.65,0,0.94,0.29,0.94,0.94v12.87
	C97.47,20.62,95.88,22.75,89.43,22.75z M104.43,22.36c-0.65,0-0.94-0.29-0.94-0.94V4.58c0-0.65,0.29-0.94,0.94-0.94h8.66
	c3.9,0,5.12,1.77,5.12,4.34v1.2c0,1.46-0.36,2.5-1.46,2.96c1.9,0.21,3.15,1.59,3.15,3.77v5.51c0,0.65-0.29,0.94-0.94,0.94h-4.03
	c-0.65,0-0.94-0.29-0.94-0.94v-3.98c0-0.78-0.26-1.12-0.99-1.12h-3.64v5.1c0,0.65-0.29,0.94-0.94,0.94H104.43z M109.37,11.65h1.95
	c0.91,0,1.14-0.52,1.14-1.22V9.54c0-0.7-0.23-1.22-1.14-1.22h-1.95V11.65z M129.24,22.36c-0.65,0-0.94-0.29-0.94-0.94V8.66h-3.82
	c-0.65,0-0.94-0.29-0.94-0.94V4.58c0-0.65,0.29-0.94,0.94-0.94h13.73c0.65,0,0.94,0.29,0.94,0.94v3.15c0,0.65-0.29,0.94-0.94,0.94
	h-3.82v12.77c0,0.65-0.29,0.94-0.94,0.94H129.24z M145.17,22.36c-0.65,0-0.94-0.29-0.94-0.94V4.58c0-0.65,0.29-0.94,0.94-0.94h4.03
	c0.65,0,0.94,0.29,0.94,0.94v5.64h4.34V4.58c0-0.65,0.29-0.94,0.94-0.94h4.03c0.65,0,0.94,0.29,0.94,0.94v16.85
	c0,0.65-0.29,0.94-0.94,0.94h-4.03c-0.65,0-0.94-0.29-0.94-0.94v-5.77h-4.34v5.77c0,0.65-0.29,0.94-0.94,0.94H145.17z M45.65,50.36
	h-3.82c-0.65,0-0.94-0.29-0.94-0.94v-6.86c0-1.04,0.31-2.34,1.01-4.16l2.26-5.9c0.21-0.6,0.62-0.86,1.33-0.86h6.99
	c0.68,0,1.09,0.26,1.3,0.86l2.26,5.9c0.7,1.82,1.01,3.12,1.01,4.16v6.86c0,0.65-0.29,0.94-0.94,0.94H52.2
	c-0.7,0-1.01-0.29-1.01-0.94v-3.64h-4.6v3.64C46.58,50.07,46.3,50.36,45.65,50.36z M46.84,41.05h4.08L49.7,37.1
	c-0.13-0.31-0.29-0.44-0.49-0.44h-0.65c-0.21,0-0.36,0.13-0.49,0.44L46.84,41.05z M63.46,50.36c-0.65,0-0.94-0.29-0.94-0.94v-3.04
	c0-0.65,0.29-0.94,0.94-0.94h6.99c0.44,0,0.68-0.34,0.68-0.75c0-0.6-0.23-0.83-0.68-0.88l-3.9-0.55c-2.44-0.36-4.03-1.4-4.03-4.32
	v-2.73c0-2.96,2-4.58,5.38-4.58h7.28c0.65,0,0.94,0.29,0.94,0.94v3.09c0,0.65-0.29,0.94-0.94,0.94h-6.06c-0.44,0-0.7,0.31-0.7,0.78
	c0,0.47,0.26,0.78,0.7,0.83L73,38.74c2.44,0.36,4.06,1.4,4.06,4.32v2.73c0,2.96-2.03,4.58-5.38,4.58H63.46z M88.73,50.36
	c-4.37,0-6.4-1.69-6.4-5.3v-8.11c0-3.61,2.03-5.3,6.4-5.3h6.5c0.65,0,0.94,0.29,0.94,0.94v3.15c0,0.65-0.29,0.94-0.94,0.94h-5.41
	c-1.09,0-1.59,0.42-1.59,1.3v6.21c0,0.88,0.39,1.27,1.2,1.27h2.52v-4.06c0-0.65,0.29-0.94,0.94-0.94h4.03
	c0.65,0,0.94,0.29,0.94,0.94v8.03c0,0.65-0.29,0.94-0.94,0.94H88.73z M104.69,50.36c-0.65,0-0.94-0.29-0.94-0.94V32.58
	c0-0.65,0.29-0.94,0.94-0.94h4.19c0.55,0,0.88,0.21,1.2,0.78l2.34,4.24c0.18,0.31,0.26,0.44,0.47,0.44h0.23
	c0.21,0,0.29-0.13,0.47-0.44l2.31-4.24c0.31-0.57,0.65-0.78,1.2-0.78h4.21c0.65,0,0.94,0.29,0.94,0.94v16.85
	c0,0.65-0.29,0.94-0.94,0.94h-4c-0.68,0-0.94-0.29-0.94-0.94v-9.15l-1.53,2.83c-0.31,0.6-0.7,0.83-1.38,0.83h-1.04
	c-0.68,0-1.07-0.23-1.38-0.83l-1.53-2.83v9.15c0,0.65-0.29,0.94-0.94,0.94H104.69z M133.19,50.36c-0.65,0-0.94-0.29-0.94-0.94V36.66
	h-3.82c-0.65,0-0.94-0.29-0.94-0.94v-3.15c0-0.65,0.29-0.94,0.94-0.94h13.73c0.65,0,0.94,0.29,0.94,0.94v3.15
	c0,0.65-0.29,0.94-0.94,0.94h-3.82v12.77c0,0.65-0.29,0.94-0.94,0.94H133.19z M147.1,50.36c-0.65,0-0.94-0.29-0.94-0.94v-5.28
	c0-0.68,0.29-0.94,0.94-0.94h5.25c0.65,0,0.94,0.26,0.94,0.94v5.28c0,0.65-0.29,0.94-0.94,0.94H147.1z M63.7,64.4
	c0.34-0.62,0.82-1.1,1.43-1.45s1.3-0.52,2.08-0.52c0.95,0,1.76,0.25,2.44,0.75c0.68,0.5,1.13,1.19,1.36,2.05h-2.14
	c-0.16-0.33-0.39-0.59-0.68-0.76c-0.29-0.17-0.62-0.26-1-0.26c-0.6,0-1.09,0.21-1.46,0.63c-0.37,0.42-0.56,0.98-0.56,1.68
	c0,0.7,0.19,1.26,0.56,1.67s0.86,0.63,1.46,0.63c0.37,0,0.7-0.09,1-0.26c0.29-0.17,0.52-0.43,0.68-0.76H71
	c-0.23,0.87-0.68,1.55-1.36,2.05c-0.68,0.5-1.49,0.75-2.44,0.75c-0.77,0-1.47-0.17-2.08-0.52c-0.61-0.34-1.09-0.83-1.43-1.44
	s-0.51-1.32-0.51-2.11S63.36,65.02,63.7,64.4z M83.31,62.53v8h-1.95v-4.8l-1.79,4.8H78l-1.8-4.81v4.81h-1.95v-8h2.3l2.25,5.54
	l2.22-5.54H83.31z M88.71,64.09v1.62h2.61v1.5h-2.61v1.75h2.95v1.56h-4.9v-8h4.9v1.56H88.71z M105.56,70.53l-0.74-0.72
	c-0.74,0.56-1.62,0.84-2.64,0.84c-0.62,0-1.15-0.1-1.61-0.3c-0.46-0.2-0.81-0.49-1.05-0.85s-0.37-0.8-0.37-1.29
	c0-0.5,0.13-0.96,0.4-1.36s0.67-0.74,1.21-1c-0.2-0.24-0.34-0.48-0.42-0.7c-0.08-0.22-0.12-0.47-0.12-0.73c0-0.38,0.1-0.73,0.3-1.04
	c0.2-0.31,0.48-0.56,0.86-0.73c0.38-0.18,0.82-0.27,1.34-0.27c0.52,0,0.97,0.1,1.33,0.29c0.36,0.19,0.64,0.44,0.82,0.76
	c0.18,0.32,0.27,0.67,0.25,1.05h-1.83c0.01-0.21-0.04-0.36-0.15-0.47c-0.11-0.11-0.26-0.17-0.44-0.17s-0.33,0.05-0.46,0.16
	c-0.12,0.11-0.18,0.24-0.18,0.41c0,0.16,0.05,0.33,0.15,0.5c0.1,0.17,0.26,0.38,0.48,0.6l1.95,1.9c0.02-0.04,0.04-0.08,0.06-0.14
	c0.03-0.05,0.05-0.11,0.08-0.18l0.42-0.72h1.95l-0.55,0.99c-0.21,0.45-0.44,0.87-0.71,1.28l1.93,1.89H105.56z M103.63,68.65
	l-1.78-1.72c-0.55,0.28-0.82,0.66-0.82,1.14c0,0.29,0.11,0.53,0.34,0.72c0.22,0.19,0.53,0.29,0.91,0.29
	C102.78,69.08,103.23,68.94,103.63,68.65z M119.14,70.53l-1.66-3.02H117v3.02h-1.95v-8h3.27c0.63,0,1.17,0.11,1.61,0.33
	c0.45,0.22,0.78,0.52,1,0.91c0.22,0.38,0.33,0.81,0.33,1.28c0,0.53-0.15,1.01-0.45,1.42s-0.74,0.71-1.33,0.89l1.85,3.17H119.14z
	 M117,66.13h1.21c0.36,0,0.62-0.09,0.8-0.26c0.18-0.17,0.27-0.42,0.27-0.74c0-0.3-0.09-0.54-0.27-0.72s-0.45-0.26-0.8-0.26H117
	V66.13z M126.49,64.09v1.62h2.61v1.5h-2.61v1.75h2.95v1.56h-4.9v-8h4.9v1.56H126.49z M137.73,69.12h-2.99l-0.48,1.41h-2.04l2.89-8
	h2.26l2.89,8h-2.06L137.73,69.12z M137.23,67.61l-0.99-2.93l-0.98,2.93H137.23z M143.38,64.4c0.34-0.62,0.82-1.1,1.43-1.45
	c0.61-0.35,1.3-0.52,2.08-0.52c0.95,0,1.76,0.25,2.44,0.75c0.68,0.5,1.13,1.19,1.36,2.05h-2.14c-0.16-0.33-0.39-0.59-0.68-0.76
	c-0.29-0.17-0.62-0.26-1-0.26c-0.6,0-1.09,0.21-1.46,0.63c-0.37,0.42-0.56,0.98-0.56,1.68c0,0.7,0.19,1.26,0.56,1.67
	s0.86,0.63,1.46,0.63c0.37,0,0.7-0.09,1-0.26c0.29-0.17,0.52-0.43,0.68-0.76h2.14c-0.23,0.87-0.68,1.55-1.36,2.05
	c-0.68,0.5-1.49,0.75-2.44,0.75c-0.77,0-1.47-0.17-2.08-0.52c-0.61-0.34-1.09-0.83-1.43-1.44s-0.51-1.32-0.51-2.11
	S143.04,65.02,143.38,64.4z M159.69,62.53v1.56h-2.12v6.44h-1.95v-6.44h-2.12v-1.56H159.69z M0.08,72.31h22.35L0,127.85l56.25-67.29
	H26.49l6.3-59.31L0.08,72.31z"/>
</svg>
